<svg width="44" height="44" viewBox="0 0 44 44" fill="none" xmlns="http://www.w3.org/2000/svg">
    <path d="M37.125 17.875H17.5467L36.0937 12.9783C36.2693 12.932 36.4339 12.8515 36.5782 12.7412C36.7225 12.631 36.8435 12.4933 36.9342 12.3361C37.025 12.1788 37.0837 12.0052 37.107 11.8251C37.1303 11.6451 37.1177 11.4622 37.07 11.287L35.6675 6.13079C35.4744 5.43708 35.0159 4.84734 34.3912 4.48929C33.7664 4.13124 33.0258 4.03371 32.3297 4.21782L6.15482 11.1272C5.80631 11.2177 5.47934 11.3767 5.19307 11.5951C4.9068 11.8135 4.66697 12.0868 4.48763 12.3991C4.30729 12.7075 4.19078 13.049 4.14501 13.4033C4.09925 13.7576 4.12516 14.1175 4.22123 14.4616L5.49998 19.1744C5.49998 19.1984 5.49998 19.2242 5.49998 19.25V34.375C5.49998 35.1043 5.78971 35.8038 6.30543 36.3195C6.82116 36.8353 7.52063 37.125 8.24998 37.125H35.75C36.4793 37.125 37.1788 36.8353 37.6945 36.3195C38.2102 35.8038 38.5 35.1043 38.5 34.375V19.25C38.5 18.8853 38.3551 18.5356 38.0972 18.2777C37.8394 18.0199 37.4896 17.875 37.125 17.875ZM33.0275 6.87501L34.0587 10.6683L30.1709 11.6995L25.3378 8.90829L33.0275 6.87501ZM21.5651 9.90001L26.3983 12.6913L20.0492 14.367L15.2161 11.5792L21.5651 9.90001ZM7.91826 17.5691L6.88701 13.7741L11.4417 12.5709L16.2748 15.3656L7.91826 17.5691ZM35.75 34.375H8.24998V20.625H35.75V34.375Z" fill="#45455F"/>
</svg>
